Coordinates
version=1
nRows=37
nColumns=38
inDegrees=no

Units are S.I. units (second, meters, Newtons, ...)
If the header above contains a line with 'inDegrees', this indicates whether rotational values are in degrees (yes) or radians (no).

endheader
time	pelvis_tilt	pelvis_list	pelvis_rotation	pelvis_tx	pelvis_ty	pelvis_tz	hip_flexion_r	hip_adduction_r	hip_rotation_r	knee_angle_r	ankle_angle_r	subtalar_angle_r	mtp_angle_r	hip_flexion_l	hip_adduction_l	hip_rotation_l	knee_angle_l	ankle_angle_l	subtalar_angle_l	mtp_angle_l	lumbar_extension	lumbar_bending	lumbar_rotation	arm_flex_r	arm_add_r	arm_rot_r	elbow_flex_r	pro_sup_r	wrist_flex_r	wrist_dev_r	arm_flex_l	arm_add_l	arm_rot_l	elbow_flex_l	pro_sup_l	wrist_flex_l	wrist_dev_l
0.52	0.653793	1.50648	1.02469	0.571024	0.106636	1.06969	-0.0618187	0.0501297	-0.316307	0.117087	-0.211463	0	0	0.458279	-0.195967	-0.286745	0.92138	0.0294336	0	0	-0.163033	0.0406245	0.0170716	-0.0825376	-0.299132	0.0143916	0.987648	1.5708	0	0	-0.149514	-0.32249	0.17948	0.752245	1.00019	0	0
0.53	0.63582	1.50986	1.0358	0.5704	0.120094	1.06938	-0.0806371	0.0475932	-0.315972	0.111254	-0.213637	0	0	0.456992	-0.198111	-0.316492	0.86058	0.00982109	0	0	-0.165355	0.0356851	0.0212729	-0.075559	-0.301475	0.0200538	1.00462	1.5708	0	0	-0.160472	-0.317724	0.16234	0.748592	0.976124	0	0
0.54	0.6255	1.51315	1.03999	0.569692	0.133526	1.06872	-0.0997334	0.0454392	-0.315688	0.105481	-0.214559	0	0	0.454097	-0.199094	-0.345181	0.796404	-0.0158502	0	0	-0.168199	0.0314608	0.024862	-0.0684323	-0.303218	0.0243127	1.02102	1.5708	0	0	-0.17015	-0.313504	0.147988	0.744337	0.958204	0	0
0.55	0.62009	1.51601	1.03971	0.568874	0.147053	1.06766	-0.118298	0.0435194	-0.316748	0.100758	-0.213891	0	0	0.449583	-0.198595	-0.371794	0.728172	-0.0463665	0	0	-0.170667	0.0279377	0.0280171	-0.061611	-0.304311	0.0272764	1.03649	1.5708	0	0	-0.17925	-0.309282	0.134356	0.739916	0.945013	0	0
0.56	0.614774	1.51753	1.0396	0.567936	0.160742	1.06612	-0.135477	0.0420089	-0.318637	0.0969322	-0.212446	0	0	0.444856	-0.195737	-0.392222	0.656149	-0.0763177	0	0	-0.171463	0.0254358	0.0309438	-0.0557746	-0.304989	0.0290679	1.05126	1.5708	0	0	-0.187901	-0.304685	0.121206	0.734508	0.937797	0	0
0.57	0.616723	1.51822	1.03271	0.56683	0.174547	1.06415	-0.15222	0.0409437	-0.32145	0.0934192	-0.209395	0	0	0.439468	-0.190176	-0.403863	0.579791	-0.129603	0	0	-0.171497	0.0243163	0.033797	-0.0507315	-0.306877	0.0319739	1.06588	1.5708	0	0	-0.194028	-0.306495	0.128967	0.728757	0.916937	0	0
0.58	0.60581	1.51584	1.04012	0.565501	0.18843	1.06154	-0.165915	0.0407562	-0.324755	0.0899284	-0.206453	0	0	0.43686	-0.182581	-0.405495	0.501035	-0.175172	0	0	-0.167839	0.0247154	0.0351634	-0.0466063	-0.307629	0.0327865	1.07945	1.5708	0	0	-0.200716	-0.303826	0.126034	0.720714	0.913543	0	0
0.59	0.591076	1.51169	1.05236	0.564019	0.202388	1.05838	-0.177965	0.0411351	-0.327697	0.086576	-0.202612	0	0	0.435124	-0.17308	-0.395415	0.420405	-0.212997	0	0	-0.162149	0.0260913	0.0355678	-0.0431801	-0.307843	0.0328245	1.09215	1.5708	0	0	-0.206783	-0.301438	0.125567	0.711845	0.913069	0	0
0.6	0.588837	1.50572	1.05205	0.562494	0.216351	1.05479	-0.188437	0.042858	-0.328375	0.0838992	-0.198275	0	0	0.433481	-0.163796	-0.372891	0.339779	-0.23315	0	0	-0.155302	0.0292478	0.0362184	-0.0403137	-0.30803	0.0323611	1.10434	1.5708	0	0	-0.211777	-0.298596	0.126384	0.701823	0.914708	0	0
0.61	0.599296	1.49861	1.03815	0.560997	0.230426	1.05084	-0.198075	0.0456203	-0.326728	0.0819524	-0.196618	0	0	0.431003	-0.156832	-0.34387	0.262687	-0.233897	0	0	-0.147885	0.0337908	0.0380155	-0.0379482	-0.30868	0.0320719	1.11566	1.5708	0	0	-0.216047	-0.295726	0.129407	0.691104	0.915117	0	0
0.62	0.608848	1.4904	1.02516	0.559442	0.244732	1.04653	-0.205959	0.0484788	-0.325531	0.0824194	-0.191468	0	0	0.427448	-0.150945	-0.305889	0.188133	-0.22355	0	0	-0.139047	0.0390361	0.0399468	-0.0364668	-0.309442	0.0319296	1.1256	1.5708	0	0	-0.220022	-0.292708	0.13385	0.679578	0.914611	0	0
0.63	0.616698	1.48249	1.01346	0.557816	0.259261	1.04203	-0.21328	0.050449	-0.324137	0.0854137	-0.184402	0	0	0.421905	-0.146343	-0.264372	0.117187	-0.208619	0	0	-0.130373	0.0439701	0.0418943	-0.0352732	-0.310881	0.0333476	1.13441	1.5708	0	0	-0.224971	-0.284176	0.121681	0.666985	0.93012	0	0
0.64	0.619153	1.4756	1.00619	0.556194	0.274029	1.03749	-0.220438	0.0509629	-0.321186	0.0905808	-0.175034	0	0	0.414656	-0.142917	-0.225591	0.0515743	-0.202375	0	0	-0.122132	0.0478135	0.0459443	-0.0364063	-0.309467	0.0290825	1.14269	1.5708	0	0	-0.22507	-0.292322	0.163895	0.656325	0.892843	0	0
0.65	0.615573	1.47039	1.00325	0.554538	0.288971	1.03301	-0.227752	0.049165	-0.314836	0.0980741	-0.16775	0	0	0.408129	-0.141098	-0.200515	0	-0.195399	0	0	-0.115502	0.0496281	0.0506295	-0.0366957	-0.309436	0.0286732	1.14891	1.5708	0	0	-0.227409	-0.288909	0.169436	0.643945	0.888416	0	0
0.66	0.611018	1.46797	1.00221	0.552637	0.304075	1.0288	-0.237076	0.0453871	-0.308944	0.106308	-0.164996	0	0	0.407124	-0.139977	-0.199428	0	-0.186648	0	0	-0.111844	0.0492733	0.0536348	-0.0360268	-0.308656	0.0287186	1.15257	1.5708	0	0	-0.230002	-0.285064	0.171204	0.632868	0.885355	0	0
0.67	0.598762	1.46714	1.01171	0.550467	0.319444	1.02482	-0.247405	0.0401024	-0.305456	0.115098	-0.164538	0	0	0.406433	-0.135955	-0.196558	0	-0.175807	0	0	-0.109155	0.0467724	0.053548	-0.0353436	-0.306593	0.0284793	1.15347	1.5708	0	0	-0.232021	-0.281554	0.171988	0.621017	0.882992	0	0
0.68	0.587346	1.46872	1.02153	0.548139	0.334963	1.02128	-0.259741	0.0333204	-0.301636	0.124484	-0.166878	0	0	0.404667	-0.130018	-0.194372	0	-0.167198	0	0	-0.10948	0.0425493	0.0523747	-0.034459	-0.304152	0.0284277	1.15237	1.5708	0	0	-0.232772	-0.277908	0.171265	0.609038	0.881856	0	0
0.69	0.577802	1.47278	1.03094	0.545625	0.35066	1.01823	-0.274187	0.0251923	-0.298598	0.13446	-0.173619	0	0	0.401661	-0.122249	-0.193706	0	-0.163324	0	0	-0.113052	0.036869	0.0501103	-0.034144	-0.300759	0.0272806	1.14998	1.5708	0	0	-0.232275	-0.273823	0.167645	0.597085	0.884275	0	0
0.7	0.567217	1.47891	1.04202	0.543065	0.366638	1.01563	-0.289822	0.0156756	-0.295002	0.146034	-0.184783	0	0	0.39748	-0.113313	-0.196688	0	-0.168218	0	0	-0.118924	0.0296234	0.0478732	-0.0352592	-0.295547	0.0234651	1.14634	1.5708	0	0	-0.230988	-0.2695	0.160877	0.585569	0.890799	0	0
0.71	0.551346	1.48372	1.05939	0.540416	0.383005	1.01312	-0.304143	0.0067237	-0.288103	0.157121	-0.191254	0	0	0.397951	-0.105534	-0.2054	0.028304	-0.171976	0	0	-0.12231	0.0225921	0.045424	-0.0383745	-0.292164	0.0220727	1.14118	1.5708	0	0	-0.230808	-0.266228	0.155404	0.576318	0.895997	0	0
0.72	0.530443	1.48925	1.07996	0.537818	0.399792	1.01085	-0.3179	-0.00432506	-0.276078	0.170449	-0.21628	0	0	0.398977	-0.0994785	-0.226421	0.0703339	-0.18873	0	0	-0.12521	0.0152286	0.0471912	-0.0458159	-0.285525	0.0120091	1.13586	1.5708	0	0	-0.224058	-0.285638	0.237879	0.5712	0.82043	0	0
0.73	0.49004	1.49213	1.11747	0.535251	0.416641	1.00861	-0.327171	-0.0182752	-0.247527	0.187239	-0.237325	0	0	0.401611	-0.0938953	-0.243841	0.105853	-0.217027	0	0	-0.124928	0.00771901	0.0508602	-0.0531742	-0.28135	0.00666281	1.12807	1.5708	0	0	-0.222307	-0.284338	0.24485	0.562263	0.817918	0	0
0.74	0.427857	1.49184	1.17471	0.532787	0.433184	1.00659	-0.33019	-0.0345157	-0.203447	0.205528	-0.264147	0	0	0.410111	-0.089145	-0.259	0.140978	-0.245873	0	0	-0.121708	-0.000108863	0.0564685	-0.0597983	-0.277018	0.00222988	1.11713	1.5708	0	0	-0.219204	-0.281817	0.249211	0.552324	0.81764	0	0
0.75	0.357721	1.4893	1.24296	0.530338	0.449531	1.00493	-0.324678	-0.0480809	-0.174418	0.231533	-0.295905	0	0	0.424724	-0.0862389	-0.268573	0.184504	-0.257978	0	0	-0.116682	-0.00851393	0.0584112	-0.0644489	-0.27131	-0.000222898	1.10132	1.5708	0	0	-0.216408	-0.279705	0.249988	0.543733	0.820478	0	0
0.76	0.293999	1.48621	1.30433	0.528106	0.465523	1.00379	-0.312625	-0.0609578	-0.148286	0.266222	-0.335952	0	0	0.44175	-0.0893065	-0.28304	0.240061	-0.252117	0	0	-0.11241	-0.0169876	0.0602139	-0.0667965	-0.265366	-0.000553868	1.08173	1.5708	0	0	-0.21373	-0.277415	0.246774	0.537653	0.827672	0	0
0.77	0.215907	1.48227	1.38255	0.525902	0.481422	1.00303	-0.294742	-0.074353	-0.12885	0.309178	-0.360166	0	0	0.45563	-0.0894102	-0.288098	0.290864	-0.240937	0	0	-0.107012	-0.027226	0.0587529	-0.0680955	-0.258097	0.000673257	1.05835	1.5708	0	0	-0.212002	-0.279987	0.25465	0.53696	0.821687	0	0
0.78	0.13518	1.47973	1.46247	0.523835	0.497012	1.00292	-0.27386	-0.0885081	-0.110868	0.357303	-0.409403	0	0	0.463887	-0.0870411	-0.291961	0.336444	-0.221228	0	0	-0.104349	-0.0383347	0.0574327	-0.0679434	-0.25034	0.00265268	1.03311	1.5708	0	0	-0.210077	-0.283908	0.264199	0.54018	0.813143	0	0
0.79	0.0576224	1.47959	1.53723	0.521861	0.512271	1.00346	-0.250973	-0.102426	-0.0922508	0.410395	-0.473733	0	0	0.466875	-0.0847131	-0.302145	0.379859	-0.196662	0	0	-0.105918	-0.0492021	0.0567045	-0.0657026	-0.244074	0.00765954	1.00693	1.5708	0	0	-0.21266	-0.271074	0.204685	0.543536	0.869657	0	0
0.8	-0.012731	1.48002	1.60357	0.519891	0.527241	1.00434	-0.224596	-0.11435	-0.0725717	0.467463	-0.545426	0	0	0.464701	-0.0813573	-0.309949	0.414194	-0.171723	0	0	-0.107855	-0.0579579	0.0582449	-0.0644224	-0.240307	0.0141773	0.98146	1.5708	0	0	-0.205258	-0.290607	0.277315	0.555459	0.802401	0	0
0.81	-0.0711522	1.47936	1.6554	0.518029	0.54193	1.0052	-0.191658	-0.125175	-0.0535572	0.532242	-0.601917	0	0	0.459367	-0.0780225	-0.316415	0.439085	-0.152848	0	0	-0.108267	-0.0648782	0.060803	-0.0624026	-0.239588	0.0263655	0.956384	1.5708	0	0	-0.204421	-0.290598	0.272331	0.565846	0.809887	0	0
0.82	-0.109615	1.47914	1.68447	0.516332	0.556322	1.00627	-0.156328	-0.130704	-0.0263706	0.598558	-0.635898	0	0	0.449961	-0.0760824	-0.323287	0.456195	-0.14023	0	0	-0.108557	-0.0689179	0.065714	-0.0601045	-0.241376	0.0418852	0.932278	1.5708	0	0	-0.202243	-0.291611	0.275787	0.57691	0.811523	0	0
0.83	-0.196328	1.49775	1.77044	0.513797	0.571884	1.00888	-0.132858	-0.138825	-0.151257	0.661498	-0.698132	0	0	0.415429	-0.0701674	-0.334491	0.466461	-0.124877	0	0	-0.129489	-0.072062	0.0601997	-0.0574492	-0.247134	0.0650009	0.913401	1.5708	0	0	-0.202659	-0.296087	0.282017	0.59762	0.810637	0	0
0.84	-0.157521	1.47392	1.70671	0.513712	0.584518	1.00835	-0.0714222	-0.134694	0.0296589	0.74107	-0.685779	0	0	0.428489	-0.0735602	-0.338922	0.474874	-0.107654	0	0	-0.100916	-0.0736451	0.0784716	-0.053022	-0.254476	0.0972292	0.885504	1.5708	0	0	-0.200968	-0.295353	0.287331	0.604597	0.814811	0	0
0.85	-0.216829	1.48878	1.76147	0.511625	0.599732	1.01101	-0.0428023	-0.143965	-0.0742777	0.806822	-0.686673	0	0	0.393566	-0.0684791	-0.349861	0.474068	-0.0960407	0	0	-0.116411	-0.0747033	0.0745006	-0.0497696	-0.262002	0.127323	0.868419	1.5708	0	0	-0.202943	-0.297887	0.286975	0.626083	0.823496	0	0
0.86	-0.166857	1.46784	1.68792	0.511926	0.612414	1.01102	0.015911	-0.131797	0.0764875	0.884547	-0.574622	0	0	0.400593	-0.0731801	-0.355035	0.474308	-0.0816363	0	0	-0.0898957	-0.0738568	0.0885851	-0.0434236	-0.270629	0.170871	0.842637	1.5708	0	0	-0.206368	-0.295179	0.274624	0.638825	0.84413	0	0
0.87	-0.198049	1.48412	1.71655	0.509719	0.627521	1.01429	0.0416081	-0.142421	-0.0348545	0.94499	-0.521687	0	0	0.362443	-0.0689155	-0.365315	0.466339	-0.0735083	0	0	-0.106419	-0.0724439	0.0780985	-0.0343529	-0.285771	0.22653	0.826516	1.5708	0	0	-0.218861	-0.271217	0.184572	0.658089	0.939191	0	0
0.88	-0.172227	1.48452	1.6821	0.508549	0.641404	1.01655	0.0773083	-0.139473	-0.0294586	1.00048	-0.453138	0	0	0.343502	-0.0701154	-0.371675	0.459676	-0.0676571	0	0	-0.103965	-0.0683959	0.0777233	-0.0328295	-0.290422	0.253632	0.811041	1.5708	0	0	-0.218739	-0.277392	0.201706	0.676503	0.938519	0	0
